<?xml version="1.0" encoding="utf-8"?>
<!-- Generator: Adobe Illustrator 22.0.1, SVG Export Plug-In . SVG Version: 6.00 Build 0)  -->
<svg version="1.1" xmlns="http://www.w3.org/2000/svg" xmlns:xlink="http://www.w3.org/1999/xlink" x="0px" y="0px"
	 viewBox="0 0 4469.1 1061.6" style="enable-background:new 0 0 4469.1 1061.6;" xml:space="preserve">
<style type="text/css">
	.st0{fill:#F2F2F2;}
	.st1{display:none;opacity:0.4;}
	.st2{display:inline;opacity:0;}
	.st3{display:inline;opacity:9.900990e-03;}
	.st4{display:inline;opacity:1.980198e-02;}
	.st5{display:inline;opacity:2.970297e-02;}
	.st6{display:inline;opacity:3.960396e-02;}
	.st7{display:inline;opacity:4.950495e-02;}
	.st8{display:inline;opacity:5.940594e-02;}
	.st9{display:inline;opacity:6.930693e-02;}
	.st10{display:inline;opacity:7.920792e-02;}
	.st11{display:inline;opacity:8.910891e-02;}
	.st12{display:inline;opacity:9.900990e-02;}
	.st13{display:inline;opacity:0.1089;}
	.st14{display:inline;opacity:0.1188;}
	.st15{display:inline;opacity:0.1287;}
	.st16{display:inline;opacity:0.1386;}
	.st17{display:inline;opacity:0.1485;}
	.st18{display:inline;opacity:0.1584;}
	.st19{display:inline;opacity:0.1683;}
	.st20{display:inline;opacity:0.1782;}
	.st21{display:inline;opacity:0.1881;}
	.st22{display:inline;opacity:0.198;}
	.st23{display:inline;opacity:0.2079;}
	.st24{display:inline;opacity:0.2178;}
	.st25{display:inline;opacity:0.2277;}
	.st26{display:inline;opacity:0.2376;}
	.st27{display:inline;opacity:0.2475;}
	.st28{display:inline;opacity:0.2574;}
	.st29{display:inline;opacity:0.2673;}
	.st30{display:inline;opacity:0.2772;}
	.st31{display:inline;opacity:0.2871;}
	.st32{display:inline;opacity:0.297;}
	.st33{display:inline;opacity:0.3069;}
	.st34{display:inline;opacity:0.3168;}
	.st35{display:inline;opacity:0.3267;}
	.st36{display:inline;opacity:0.3366;}
	.st37{display:inline;opacity:0.3465;}
	.st38{display:inline;opacity:0.3564;}
	.st39{display:inline;opacity:0.3663;}
	.st40{display:inline;opacity:0.3762;}
	.st41{display:inline;opacity:0.3861;}
	.st42{display:inline;opacity:0.396;}
	.st43{display:inline;opacity:0.4059;}
	.st44{display:inline;opacity:0.4158;}
	.st45{display:inline;opacity:0.4257;}
	.st46{display:inline;opacity:0.4356;}
	.st47{display:inline;opacity:0.4455;}
	.st48{display:inline;opacity:0.4554;}
	.st49{display:inline;opacity:0.4653;}
	.st50{display:inline;opacity:0.4752;}
	.st51{display:inline;opacity:0.4851;}
	.st52{display:inline;opacity:0.495;}
	.st53{display:inline;opacity:0.505;}
	.st54{display:inline;opacity:0.5149;}
	.st55{display:inline;opacity:0.5248;}
	.st56{display:inline;opacity:0.5347;}
	.st57{display:inline;opacity:0.5446;}
	.st58{display:inline;opacity:0.5545;}
	.st59{display:inline;opacity:0.5644;}
	.st60{display:inline;opacity:0.5743;}
	.st61{display:inline;opacity:0.5842;}
	.st62{display:inline;opacity:0.5941;}
	.st63{display:inline;opacity:0.604;}
	.st64{display:inline;opacity:0.6139;}
	.st65{display:inline;opacity:0.6238;}
	.st66{display:inline;opacity:0.6337;}
	.st67{display:inline;opacity:0.6436;}
	.st68{display:inline;opacity:0.6535;}
	.st69{display:inline;opacity:0.6634;}
	.st70{display:inline;opacity:0.6733;}
	.st71{display:inline;opacity:0.6832;}
	.st72{display:inline;opacity:0.6931;}
	.st73{display:inline;opacity:0.703;}
	.st74{display:inline;opacity:0.7129;}
	.st75{display:inline;opacity:0.7228;}
	.st76{display:inline;opacity:0.7327;}
	.st77{display:inline;opacity:0.7426;}
	.st78{display:inline;opacity:0.7525;}
	.st79{display:inline;opacity:0.7624;}
	.st80{display:inline;opacity:0.7723;}
	.st81{display:inline;opacity:0.7822;}
	.st82{display:inline;opacity:0.7921;}
	.st83{display:inline;opacity:0.802;}
	.st84{display:inline;opacity:0.8119;}
	.st85{display:inline;opacity:0.8218;}
	.st86{display:inline;opacity:0.8317;}
	.st87{display:inline;opacity:0.8416;}
	.st88{display:inline;opacity:0.8515;}
	.st89{display:inline;opacity:0.8614;}
	.st90{display:inline;opacity:0.8713;}
	.st91{display:inline;opacity:0.8812;}
	.st92{display:inline;opacity:0.8911;}
	.st93{display:inline;opacity:0.901;}
	.st94{display:inline;opacity:0.9109;}
	.st95{display:inline;opacity:0.9208;}
	.st96{display:inline;opacity:0.9307;}
	.st97{display:inline;opacity:0.9406;}
	.st98{display:inline;opacity:0.9505;}
	.st99{display:inline;opacity:0.9604;}
	.st100{display:inline;opacity:0.9703;}
	.st101{display:inline;opacity:0.9802;}
	.st102{display:inline;opacity:0.9901;}
	.st103{display:inline;}
	.st104{fill:url(#SVGID_1_);}
	.st105{opacity:0.25;}
	.st106{fill:#FFFFFF;}
	.st107{display:none;}
	.st108{display:inline;fill:#FFFFFF;}
</style>
<g id="Warstwa_3">
	<g>
		<path class="st0" d="M296.6,380c-21.9,0-42.6,4.3-62.1,12.8c-19.5,8.5-36.2,19.8-50.2,33.8c-14,14-25.1,30.7-33.3,50.2
			c-8.2,19.5-12.3,40.2-12.3,62.1s4.1,42.6,12.3,62.1c8.2,19.5,19.3,36.5,33.3,51.1c14,14.6,30.7,26.2,50.2,34.7
			c19.5,8.5,40.2,12.8,62.1,12.8c28.6,0,54.3-6.8,77.1-20.5c22.8-13.7,41.2-31.5,55.2-53.4l64.8,42c-21.3,32.9-49.2,59-83.5,78.5
			c-34.4,19.5-72.3,29.2-113.7,29.2c-32.9,0-63.6-6.2-92.2-18.7c-28.6-12.5-53.6-29.4-74.9-50.7c-21.3-21.3-38.2-46.2-50.7-74.9
			c-12.5-28.6-18.7-59.3-18.7-92.2c0-32.3,6.2-62.7,18.7-91.3c12.5-28.6,29.4-53.4,50.7-74.4c21.3-21,46.2-37.7,74.9-50.2
			c28.6-12.5,59.3-18.7,92.2-18.7c41.4,0,79.3,9.7,113.7,29.2c34.4,19.5,62.2,45.6,83.5,78.5l-63.9,42c-14-22.5-32.6-40.5-55.7-53.9
			C351.1,386.7,325.2,380,296.6,380z"/>
		<path class="st0" d="M807,303.3c19.5,0,37.1,1.8,53,5.5l-11,74.9c-11-4.3-25.3-6.4-42.9-6.4c-29.2,0-52.5,4.4-69.8,13.2
			c-17.3,8.8-30.7,19.5-40.2,32c-9.4,12.5-15.7,25-18.7,37.4c-3.1,12.5-4.9,22.4-5.5,29.7v269.3h-77.6V320.7h77.6V360
			c0.6-0.6,3.8-3.8,9.6-9.6c5.8-5.8,14.2-12.2,25.1-19.2c11-7,24.8-13.4,41.5-19.2C764.8,306.2,784.5,303.3,807,303.3z"/>
		<path class="st0" d="M1331.1,320.7L1038,999.1l-67.6-33.8l92.2-214.6l-185.3-430h82.2l144.3,334.2L1248,320.7H1331.1z"/>
		<path class="st0" d="M1645.1,304.3c29.8,0,58.1,6.1,84.9,18.3c26.8,12.2,50.1,28.9,69.8,50.2c19.8,21.3,35.5,46.3,47,74.9
			c11.6,28.6,17.3,59.3,17.3,92.2s-5.8,63.6-17.3,92.2c-11.6,28.6-27.2,53.6-47,74.9c-19.8,21.3-43.1,38-69.8,50.2
			c-26.8,12.2-55.1,18.3-84.9,18.3c-30.4,0-58.7-5.9-84.9-17.8c-26.2-11.9-49.3-28.4-69.4-49.8v270.2h-77.6V320.7h77.6v51.1
			c20.1-21.3,43.2-37.9,69.4-49.8C1586.4,310.2,1614.7,304.3,1645.1,304.3z M1638.7,699.6c20.1,0,39.1-4.1,57.1-12.3
			c17.9-8.2,33.6-19.6,47-34.2c13.4-14.6,23.9-31.6,31.5-51.1c7.6-19.5,11.4-40.2,11.4-62.1s-3.8-42.6-11.4-62.1
			c-7.6-19.5-18.1-36.5-31.5-51.1c-13.4-14.6-29.1-26-47-34.2c-18-8.2-37-12.3-57.1-12.3c-20.1,0-39.1,4.1-57.1,12.3
			c-18,8.2-33.6,19.6-47,34.2c-13.4,14.6-24.1,31.7-32,51.1c-7.9,19.5-11.9,40.2-11.9,62.1s4,42.6,11.9,62.1
			c7.9,19.5,18.6,36.5,32,51.1c13.4,14.6,29.1,26,47,34.2C1599.6,695.5,1618.6,699.6,1638.7,699.6z"/>
		<path class="st0" d="M2179.2,765.3c-1.8,0.6-6.7,2.1-14.6,4.6c-7.9,2.4-17.8,4.1-29.7,5s-25,0.1-39.3-2.3
			c-14.3-2.4-28.2-8.2-41.5-17.3c-40.8-27.4-61.2-78.8-61.2-154.3V396.5h-55.7v-75.8h55.7V118h75.8v202.7h91.3v75.8h-91.3V601
			c0,48.1,9.1,78.5,27.4,91.3c5.5,3.7,11.4,5.8,17.8,6.4c6.4,0.6,12.3,0.8,17.8,0.5c5.5-0.3,12.2-1.7,20.1-4.1L2179.2,765.3z"/>
		<path class="st0" d="M2469.6,775.4c-32.9,0-63.6-6.1-92.2-18.3c-28.6-12.2-53.6-28.9-74.9-50.2c-21.3-21.3-38.2-46.2-50.7-74.9
			c-12.5-28.6-18.7-59.3-18.7-92.2c0-32.3,6.2-62.7,18.7-91.3c12.5-28.6,29.4-53.6,50.7-74.9c21.3-21.3,46.2-38.2,74.9-50.7
			c28.6-12.5,59.3-18.7,92.2-18.7c32.3,0,62.7,6.2,91.3,18.7c28.6,12.5,53.6,29.4,74.9,50.7c21.3,21.3,38.2,46.3,50.7,74.9
			c12.5,28.6,18.7,59,18.7,91.3c0,32.9-6.2,63.6-18.7,92.2c-12.5,28.6-29.4,53.6-50.7,74.9c-21.3,21.3-46.3,38-74.9,50.2
			C2532.2,769.3,2501.8,775.4,2469.6,775.4z M2469.6,380c-21.9,0-42.6,4.1-62.1,12.3c-19.5,8.2-36.2,19.6-50.2,34.2
			c-14,14.6-25.1,31.7-33.3,51.1c-8.2,19.5-12.3,40.2-12.3,62.1s4.1,42.6,12.3,62.1c8.2,19.5,19.3,36.4,33.3,50.7
			c14,14.3,30.7,25.6,50.2,33.8c19.5,8.2,40.2,12.3,62.1,12.3s42.5-4.1,61.6-12.3c19.2-8.2,35.9-19.5,50.2-33.8
			c14.3-14.3,25.6-31.2,33.8-50.7c8.2-19.5,12.3-40.2,12.3-62.1s-4.1-42.6-12.3-62.1c-8.2-19.5-19.5-36.5-33.8-51.1
			c-14.3-14.6-31-26-50.2-34.2C2512,384.1,2491.5,380,2469.6,380z"/>
		<path class="st0" d="M3234.6,674.9v84h-401.7V119.8h85.8v555.1H3234.6z"/>
		<path class="st0" d="M3406.3,195.6c0,14-4.9,26-14.6,36.1c-9.7,10-21.6,15.1-35.6,15.1c-14,0-26-5-36.1-15.1s-15.1-22.1-15.1-36.1
			c0-14,5-25.9,15.1-35.6c10-9.7,22.1-14.6,36.1-14.6c14,0,25.9,4.9,35.6,14.6C3401.4,169.7,3406.3,181.6,3406.3,195.6z
			 M3394.4,758.9h-77.6V320.7h77.6V758.9z"/>
		<path class="st0" d="M3930.3,320.7l-189,438.2h-75.8l-189-438.2h83.1l144.3,334.2l144.3-334.2H3930.3z"/>
		<path class="st0" d="M4053.6,560.8c2.4,19.5,7.8,37.7,16,54.8c8.2,17,18.6,31.7,31,43.8c12.5,12.2,26.8,21.9,42.9,29.2
			c16.1,7.3,33.3,11,51.6,11c28,0,53.4-6.7,76.2-20.1c22.8-13.4,41.2-31.3,55.2-53.9l63.9,41.1c-20.7,32.9-48.1,59.2-82.2,79
			c-34.1,19.8-71.8,29.7-113.2,29.7c-28.6,0-55.5-5.5-80.8-16.4c-25.3-11-47.6-26-67.1-45.2c-19.5-19.2-35.5-41.8-47.9-68
			c-12.5-26.2-19.9-54.5-22.4-84.9c0-3-0.2-6.4-0.5-10c-0.3-3.7-0.5-7.3-0.5-11c0-19.5,2.1-37.7,6.4-54.8
			c5.5-25.6,14.9-49.4,28.3-71.7c13.4-22.2,29.4-41.4,47.9-57.5c18.6-16.1,39.6-28.8,63-37.9c23.4-9.1,47.9-13.7,73.5-13.7
			c25.6,0,50.1,4.6,73.5,13.7c23.4,9.1,44.4,21.8,63,37.9c18.6,16.1,34.5,35.3,47.9,57.5c13.4,22.2,22.8,46.1,28.3,71.7
			c4.3,17,6.4,35.3,6.4,54.8c0,3.7,0,7.3,0,11s-0.3,7-0.9,10H4053.6z M4329.3,485c-10.4-31-27.5-56.3-51.6-75.8
			c-24.1-19.5-51.6-29.2-82.6-29.2s-58.6,9.7-82.6,29.2c-24.1,19.5-41.2,44.7-51.6,75.8H4329.3z"/>
	</g>
</g>
<g id="Warstwa_2">
	<g class="st1">
		<circle class="st2" cx="2638.8" cy="643.5" r="296.1"/>
		<circle class="st3" cx="2637.3" cy="642" r="296.1"/>
		<circle class="st4" cx="2635.8" cy="640.5" r="296.1"/>
		<circle class="st5" cx="2634.3" cy="639" r="296.1"/>
		<circle class="st6" cx="2632.7" cy="637.5" r="296.1"/>
		<circle class="st7" cx="2631.2" cy="636" r="296.1"/>
		<circle class="st8" cx="2629.7" cy="634.5" r="296.1"/>
		<circle class="st9" cx="2628.2" cy="633" r="296.1"/>
		<circle class="st10" cx="2626.7" cy="631.5" r="296.1"/>
		<circle class="st11" cx="2625.2" cy="630" r="296.1"/>
		<circle class="st12" cx="2623.7" cy="628.5" r="296.1"/>
		<circle class="st13" cx="2622.2" cy="627" r="296.1"/>
		<circle class="st14" cx="2620.7" cy="625.5" r="296.1"/>
		<circle class="st15" cx="2619.2" cy="624" r="296.1"/>
		<circle class="st16" cx="2617.7" cy="622.5" r="296.1"/>
		<circle class="st17" cx="2616.2" cy="621" r="296.1"/>
		<circle class="st18" cx="2614.7" cy="619.5" r="296.1"/>
		<circle class="st19" cx="2613.2" cy="618" r="296.1"/>
		<circle class="st20" cx="2611.7" cy="616.4" r="296.1"/>
		<circle class="st21" cx="2610.2" cy="614.9" r="296.1"/>
		<circle class="st22" cx="2608.7" cy="613.4" r="296.1"/>
		<circle class="st23" cx="2607.2" cy="611.9" r="296.1"/>
		<circle class="st24" cx="2605.7" cy="610.4" r="296.1"/>
		<circle class="st25" cx="2604.2" cy="608.9" r="296.1"/>
		<circle class="st26" cx="2602.7" cy="607.4" r="296.1"/>
		<circle class="st27" cx="2601.2" cy="605.9" r="296.1"/>
		<circle class="st28" cx="2599.7" cy="604.4" r="296.1"/>
		<circle class="st29" cx="2598.2" cy="602.9" r="296.1"/>
		<circle class="st30" cx="2596.7" cy="601.4" r="296.1"/>
		<circle class="st31" cx="2595.2" cy="599.9" r="296.1"/>
		<circle class="st32" cx="2593.7" cy="598.4" r="296.1"/>
		<circle class="st33" cx="2592.2" cy="596.9" r="296.1"/>
		<circle class="st34" cx="2590.7" cy="595.4" r="296.1"/>
		<circle class="st35" cx="2589.2" cy="593.9" r="296.1"/>
		<circle class="st36" cx="2587.7" cy="592.4" r="296.1"/>
		<circle class="st37" cx="2586.2" cy="590.9" r="296.1"/>
		<circle class="st38" cx="2584.7" cy="589.4" r="296.1"/>
		<circle class="st39" cx="2583.2" cy="587.9" r="296.1"/>
		<circle class="st40" cx="2581.7" cy="586.4" r="296.1"/>
		<circle class="st41" cx="2580.2" cy="584.9" r="296.1"/>
		<circle class="st42" cx="2578.7" cy="583.4" r="296.1"/>
		<circle class="st43" cx="2577.2" cy="581.9" r="296.1"/>
		<circle class="st44" cx="2575.7" cy="580.4" r="296.1"/>
		<circle class="st45" cx="2574.2" cy="578.9" r="296.1"/>
		<circle class="st46" cx="2572.7" cy="577.4" r="296.1"/>
		<circle class="st47" cx="2571.2" cy="575.9" r="296.1"/>
		<circle class="st48" cx="2569.7" cy="574.4" r="296.1"/>
		<circle class="st49" cx="2568.2" cy="572.9" r="296.1"/>
		<circle class="st50" cx="2566.7" cy="571.4" r="296.1"/>
		<circle class="st51" cx="2565.1" cy="569.9" r="296.1"/>
		<circle class="st52" cx="2563.6" cy="568.4" r="296.1"/>
		<circle class="st53" cx="2562.1" cy="566.9" r="296.1"/>
		<circle class="st54" cx="2560.6" cy="565.4" r="296.1"/>
		<circle class="st55" cx="2559.1" cy="563.9" r="296.1"/>
		<circle class="st56" cx="2557.6" cy="562.4" r="296.1"/>
		<circle class="st57" cx="2556.1" cy="560.9" r="296.1"/>
		<circle class="st58" cx="2554.6" cy="559.4" r="296.1"/>
		<circle class="st59" cx="2553.1" cy="557.9" r="296.1"/>
		<circle class="st60" cx="2551.6" cy="556.4" r="296.1"/>
		<circle class="st61" cx="2550.1" cy="554.9" r="296.1"/>
		<circle class="st62" cx="2548.6" cy="553.4" r="296.1"/>
		<circle class="st63" cx="2547.1" cy="551.9" r="296.1"/>
		<circle class="st64" cx="2545.6" cy="550.4" r="296.1"/>
		<circle class="st65" cx="2544.1" cy="548.8" r="296.1"/>
		<circle class="st66" cx="2542.6" cy="547.3" r="296.1"/>
		<circle class="st67" cx="2541.1" cy="545.8" r="296.1"/>
		<circle class="st68" cx="2539.6" cy="544.3" r="296.1"/>
		<circle class="st69" cx="2538.1" cy="542.8" r="296.1"/>
		<circle class="st70" cx="2536.6" cy="541.3" r="296.1"/>
		<circle class="st71" cx="2535.1" cy="539.8" r="296.1"/>
		<circle class="st72" cx="2533.6" cy="538.3" r="296.1"/>
		<circle class="st73" cx="2532.1" cy="536.8" r="296.1"/>
		<circle class="st74" cx="2530.6" cy="535.3" r="296.1"/>
		<circle class="st75" cx="2529.1" cy="533.8" r="296.1"/>
		<circle class="st76" cx="2527.6" cy="532.3" r="296.1"/>
		<circle class="st77" cx="2526.1" cy="530.8" r="296.1"/>
		<circle class="st78" cx="2524.6" cy="529.3" r="296.1"/>
		<circle class="st79" cx="2523.1" cy="527.8" r="296.1"/>
		<circle class="st80" cx="2521.6" cy="526.3" r="296.1"/>
		<circle class="st81" cx="2520.1" cy="524.8" r="296.1"/>
		<circle class="st82" cx="2518.6" cy="523.3" r="296.1"/>
		<circle class="st83" cx="2517.1" cy="521.8" r="296.1"/>
		<circle class="st84" cx="2515.6" cy="520.3" r="296.1"/>
		<circle class="st85" cx="2514.1" cy="518.8" r="296.1"/>
		<circle class="st86" cx="2512.6" cy="517.3" r="296.1"/>
		<circle class="st87" cx="2511.1" cy="515.8" r="296.1"/>
		<circle class="st88" cx="2509.6" cy="514.3" r="296.1"/>
		<circle class="st89" cx="2508.1" cy="512.8" r="296.1"/>
		<circle class="st90" cx="2506.6" cy="511.3" r="296.1"/>
		<circle class="st91" cx="2505.1" cy="509.8" r="296.1"/>
		<circle class="st92" cx="2503.6" cy="508.3" r="296.1"/>
		<circle class="st93" cx="2502.1" cy="506.8" r="296.1"/>
		<circle class="st94" cx="2500.6" cy="505.3" r="296.1"/>
		<circle class="st95" cx="2499.1" cy="503.8" r="296.1"/>
		<circle class="st96" cx="2497.5" cy="502.3" r="296.1"/>
		<circle class="st97" cx="2496" cy="500.8" r="296.1"/>
		<circle class="st98" cx="2494.5" cy="499.3" r="296.1"/>
		<circle class="st99" cx="2493" cy="497.8" r="296.1"/>
		<circle class="st100" cx="2491.5" cy="496.3" r="296.1"/>
		<circle class="st101" cx="2490" cy="494.8" r="296.1"/>
		<circle class="st102" cx="2488.5" cy="493.3" r="296.1"/>
		<circle class="st103" cx="2487" cy="491.8" r="296.1"/>
	</g>
	<linearGradient id="SVGID_1_" gradientUnits="userSpaceOnUse" x1="2352.8743" y1="298.9661" x2="2614.9182" y2="752.8392">
		<stop  offset="0" style="stop-color:#9380BC"/>
		<stop  offset="0.1412" style="stop-color:#8C77B6"/>
		<stop  offset="0.3759" style="stop-color:#7A5DA6"/>
		<stop  offset="0.6753" style="stop-color:#5C348B"/>
		<stop  offset="0.9944" style="stop-color:#37006A"/>
	</linearGradient>
	<circle class="st104" cx="2483.9" cy="525.9" r="262"/>
	<path class="st105" d="M2361,648.8l138.6,138.6c69.4-4.1,131.6-35.3,176.1-83.1l-61.6-62l-21,12.1v-5.7H2361z"/>
	<path class="st106" d="M2360.6,649.7V418.1h-4.9l4.9-8.5v-0.3h0.2l7.3-12.7l12.4,21.4h-5.4v217.1h217.7v-5.3l21.4,12.4l-21.4,12.4
		v-5H2360.6z M2558.1,452.5c9.8,9.8,15.5,22.8,15.9,36.3c0.4,13.8-4.6,26.6-14.1,36.1c-5.2,5.2-11.4,9.1-18.3,11.5
		c-6.6,2.3-13.6,3.2-20.7,2.6l-0.5,0l-65.7-8.5l-1.3-0.1l-3.4-0.4l-2.4-0.3c-9.5-0.8-18.6,2.5-25,8.9c-12.7,12.7-11.9,34.1,1.7,47.8
		c13.6,13.6,35.1,14.4,47.8,1.7c6.3-6.3,9.5-14.8,9-24l-0.1-1.7l-0.8-6.4l-3.9,0.4l10.8-17l14,14.5l-3.5,0.3l0.8,6.3l0.2,2.5
		c0.4,6.9-0.6,13.6-2.9,20c-2.4,6.6-6.2,12.5-11.2,17.5c-9.5,9.5-22.4,14.5-36.1,14.1c-13.6-0.4-26.5-6-36.3-15.9
		s-15.5-22.8-15.9-36.3c-0.4-13.8,4.6-26.6,14.1-36.1c10.1-10.1,24.3-15.2,39-14l0.2,0l0.8,0.1l68.3,8.9l0.4,0l2.7,0.3l0.4,0l0.3,0
		c9.6,0.9,18.6-2.3,25.3-9c12.7-12.7,11.9-34.1-1.7-47.8c-13.6-13.6-35.1-14.4-47.8-1.7c-6.9,6.9-10.1,17.1-8.7,28l2.3,17.8
		l-17.9-2.3l-1.7-13.3c-2.1-16.3,2.9-31.8,13.6-42.6c9.5-9.5,22.4-14.5,36.1-14.1C2535.3,437.1,2548.2,442.7,2558.1,452.5z"/>
	<g class="st107">
		<path class="st108" d="M2514.7,629.9c0.7,0,1.3-0.2,1.8-0.6c0.5-0.4,0.9-1,1.1-1.8h1c-0.2,1-0.6,1.8-1.4,2.5
			c-0.7,0.6-1.6,0.9-2.5,0.9c-0.8,0-1.4-0.2-1.9-0.7c-0.5-0.4-0.9-1-1.1-1.8s-0.3-1.6-0.2-2.6l0-0.4c0.1-0.7,0.2-1.3,0.4-1.9
			c0.2-0.6,0.5-1.2,0.9-1.7c0.4-0.5,0.8-0.9,1.4-1.1c0.5-0.3,1.1-0.4,1.8-0.4c1,0,1.7,0.4,2.3,1.1c0.6,0.7,0.8,1.5,0.8,2.6l-1,0
			c0-0.8-0.2-1.4-0.6-1.9c-0.4-0.5-0.9-0.7-1.6-0.8c-0.7,0-1.4,0.2-1.9,0.7s-1,1.2-1.2,2c-0.3,0.9-0.4,1.8-0.4,2.8
			c0,1,0.2,1.8,0.6,2.3C2513.4,629.6,2514,629.9,2514.7,629.9z"/>
		<path class="st108" d="M2526,621.4c-0.2-0.1-0.5-0.1-0.7-0.1c-0.7,0-1.3,0.2-1.8,0.7c-0.6,0.4-0.9,1-1.1,1.7l-1.1,7.1h-1l1.6-10.3
			h1l-0.3,1.6c0.3-0.6,0.8-1.1,1.2-1.4c0.5-0.3,1-0.5,1.6-0.5c0.2,0,0.4,0,0.7,0.1L2526,621.4z"/>
		<path class="st108" d="M2529.7,629l4-8.6h1.2l-5.8,11.9c-0.4,0.9-0.9,1.6-1.3,2c-0.5,0.4-1,0.6-1.6,0.6c-0.2,0-0.5-0.1-0.8-0.2
			l0.1-0.9l0.5,0.1c1,0,1.7-0.6,2.3-1.9l0.7-1.4l-1.8-10.1h1.1L2529.7,629z"/>
		<path class="st108" d="M2538.9,630.9c-0.5,0-1.1-0.1-1.5-0.4c-0.5-0.2-0.9-0.6-1.2-1.1l-0.9,5.2h-1l2.3-14.2h1l-0.2,1.4
			c0.8-1.1,1.8-1.7,3.1-1.6c0.9,0,1.6,0.4,2.1,1.1c0.5,0.7,0.7,1.7,0.8,2.9c0,0.4,0,0.8-0.1,1.2l0,0.3c-0.1,1.1-0.4,2.1-0.8,2.9
			c-0.4,0.8-0.9,1.4-1.5,1.8C2540.3,630.7,2539.7,630.9,2538.9,630.9z M2542.2,625.4l0.1-0.9c0-1-0.2-1.8-0.5-2.4
			c-0.4-0.6-0.9-0.9-1.6-0.9c-0.6,0-1.2,0.1-1.7,0.5c-0.5,0.3-0.9,0.8-1.3,1.5l-0.8,4.9c0.2,0.6,0.5,1,0.9,1.3
			c0.4,0.3,0.9,0.5,1.5,0.5c0.8,0,1.6-0.3,2.1-1c0.6-0.7,1-1.7,1.2-3L2542.2,625.4z"/>
		<path class="st108" d="M2548.5,617.8l-0.4,2.6h1.9l-0.1,0.9h-1.9l-1,6.8l0,0.6c0,0.7,0.3,1,0.9,1.1c0.2,0,0.5,0,0.8-0.1l0,0.9
			c-0.3,0.1-0.7,0.2-1,0.1c-0.6,0-1.1-0.2-1.3-0.7c-0.3-0.5-0.4-1.1-0.3-2l1-6.8h-1.7l0.2-0.9h1.7l0.4-2.6H2548.5z"/>
		<path class="st108" d="M2550.8,625.5c0.1-1,0.4-1.9,0.8-2.7c0.5-0.8,1-1.5,1.7-1.9c0.7-0.4,1.4-0.6,2.2-0.6c0.8,0,1.4,0.2,2,0.7
			c0.5,0.5,1,1.1,1.2,1.8s0.3,1.6,0.3,2.6l0,0.2c-0.2,1.6-0.7,2.9-1.6,3.9c-0.9,1-1.9,1.5-3.2,1.4c-1.1,0-1.9-0.4-2.5-1.3
			c-0.6-0.8-0.9-1.9-0.9-3.3l0-0.5L2550.8,625.5z M2551.8,625.8c-0.1,0.8,0,1.4,0.2,2.1c0.2,0.6,0.5,1.1,0.9,1.5
			c0.4,0.4,0.9,0.5,1.5,0.6c0.6,0,1.2-0.2,1.7-0.5c0.5-0.4,0.9-0.9,1.3-1.5s0.6-1.4,0.7-2.2l0-0.3c0.1-1.2-0.1-2.2-0.5-3
			c-0.5-0.8-1.1-1.2-2-1.2c-0.9,0-1.7,0.4-2.4,1.2s-1.1,1.9-1.2,3.2L2551.8,625.8z"/>
		<path class="st108" d="M2561.9,629.7h6.1l-0.2,1h-7.2l2.2-13.8h1.1L2561.9,629.7z"/>
		<path class="st108" d="M2571,630.7h-1l1.6-10.3h1L2571,630.7z M2571.9,617.5c0-0.4,0.3-0.7,0.8-0.8c0.2,0,0.4,0.1,0.5,0.2
			c0.1,0.1,0.2,0.3,0.2,0.5c-0.1,0.2-0.1,0.4-0.3,0.5c-0.1,0.1-0.3,0.2-0.5,0.2C2572.1,618.2,2571.9,617.9,2571.9,617.5z"/>
		<path class="st108" d="M2577.2,629.1l4-8.7h1.1l-4.9,10.3h-0.8l-2-10.3h1L2577.2,629.1z"/>
		<path class="st108" d="M2586.2,630.9c-0.8,0-1.4-0.2-2-0.7c-0.6-0.4-1-1.1-1.2-1.8c-0.3-0.8-0.3-1.6-0.3-2.5l0-0.3
			c0.1-0.9,0.3-1.8,0.8-2.7c0.4-0.9,1-1.5,1.7-2c0.7-0.5,1.4-0.7,2.1-0.6c0.7,0,1.3,0.2,1.8,0.6c0.5,0.4,0.8,1,1.1,1.7
			c0.2,0.7,0.3,1.5,0.2,2.4l-0.1,0.7h-6.5l0,0.2c-0.1,0.7,0,1.3,0.1,2c0.2,0.6,0.5,1.1,0.9,1.5c0.4,0.4,0.9,0.6,1.5,0.6
			c0.6,0,1.1-0.1,1.5-0.4c0.4-0.3,0.9-0.6,1.2-1l0.6,0.5c-0.4,0.6-0.9,1-1.5,1.4S2586.9,630.9,2586.2,630.9z M2587.3,621.2
			c-0.8,0-1.4,0.3-2,0.9c-0.6,0.6-1,1.5-1.4,2.6l5.5,0l0-0.1c0.1-0.9,0-1.7-0.4-2.3C2588.6,621.6,2588.1,621.3,2587.3,621.2z"/>
	</g>
	<g>
	</g>
	<g>
	</g>
	<g>
	</g>
	<g>
	</g>
	<g>
	</g>
	<g>
	</g>
	<g>
	</g>
	<g>
	</g>
	<g>
	</g>
	<g>
	</g>
	<g>
	</g>
	<g>
	</g>
	<g>
	</g>
	<g>
	</g>
	<g>
	</g>
</g>
</svg>
